<svg width="58" height="64" viewBox="0 0 58 64" fill="none" xmlns="http://www.w3.org/2000/svg">
<path d="M7 16.0005H51C53.7614 16.0005 56 18.2391 56 21.0005L58 59.0005C58 61.7619 55.7614 64.0005 53 64.0005H5C2.23858 64.0005 0 61.7619 0 59.0005L2 21.0005C2 18.2391 4.23858 16.0005 7 16.0005Z" fill="#004CFF"/>
<path d="M13.919 26.691V12.8111C13.919 7.3602 18.466 2.94141 24.0751 2.94141H33.3169C38.9259 2.94141 43.473 7.3602 43.473 12.8111V26.691" stroke="white" stroke-width="5" stroke-linecap="round"/>
<path d="M13.919 14.691V12.8111C13.919 7.3602 18.466 2.94141 24.0751 2.94141H33.3169C38.9259 2.94141 43.473 7.3602 43.473 12.8111V14.691" stroke="#004CFF" stroke-width="5" stroke-linecap="round"/>
<path d="M33.4305 33.1568C32.4739 32.8982 31.1296 32.6914 29.9404 32.6914C25.1318 32.6914 23.167 35.1474 23.167 37.7327C23.167 39.9301 24.2528 41.4813 27.6395 43.808C29.9921 45.4109 31.0262 46.3157 31.0262 47.3757C31.0262 48.4873 30.0438 49.4956 28.0531 49.4956C26.3727 49.4956 24.3045 49.0302 23.4255 48.6941L23.3738 52.0808C24.3045 52.3652 26.5278 52.6754 27.8205 52.6754C32.0344 52.6754 34.8265 50.4004 34.8265 47.2205C34.8265 44.868 33.0944 43.1875 30.2764 41.2228C27.9239 39.594 26.9156 38.7409 26.9156 37.7068C26.9156 36.5951 27.7946 35.8713 29.9404 35.8713C31.0779 35.8713 32.4739 36.1298 33.3787 36.4917L33.4305 33.1568Z" fill="white"/>
</svg>
