<svg width="66" height="72" viewBox="0 0 66 72" fill="none" xmlns="http://www.w3.org/2000/svg">
<g filter="url(#filter0_d_2436_2191)">
<path d="M11 16.0005H55C57.7614 16.0005 60 18.2391 60 21.0005L62 59.0005C62 61.7619 59.7614 64.0005 57 64.0005H9C6.23858 64.0005 4 61.7619 4 59.0005L6 21.0005C6 18.2391 8.23858 16.0005 11 16.0005Z" fill="#EB00CB" fill-opacity="0.7"/>
<path d="M17.919 26.691V12.8111C17.919 7.3602 22.466 2.94141 28.0751 2.94141H37.3169C42.9259 2.94141 47.473 7.3602 47.473 12.8111V26.691" stroke="white" stroke-width="5" stroke-linecap="round"/>
<path d="M17.919 14.691V12.8111C17.919 7.3602 22.466 2.94141 28.0751 2.94141H37.3169C42.9259 2.94141 47.473 7.3602 47.473 12.8111V14.691" stroke="#EB00CB" stroke-opacity="0.7" stroke-width="5" stroke-linecap="round"/>
<path d="M37.4305 33.1568C36.4739 32.8982 35.1296 32.6914 33.9404 32.6914C29.1318 32.6914 27.167 35.1474 27.167 37.7327C27.167 39.9301 28.2528 41.4813 31.6395 43.808C33.9921 45.4109 35.0262 46.3157 35.0262 47.3757C35.0262 48.4873 34.0438 49.4956 32.0531 49.4956C30.3727 49.4956 28.3045 49.0302 27.4255 48.6941L27.3738 52.0808C28.3045 52.3652 30.5278 52.6754 31.8205 52.6754C36.0344 52.6754 38.8265 50.4004 38.8265 47.2205C38.8265 44.868 37.0944 43.1875 34.2764 41.2228C31.9239 39.594 30.9156 38.7409 30.9156 37.7068C30.9156 36.5951 31.7946 35.8713 33.9404 35.8713C35.0779 35.8713 36.4739 36.1298 37.3787 36.4917L37.4305 33.1568Z" fill="white"/>
</g>
<defs>
<filter id="filter0_d_2436_2191" x="0" y="0.441406" width="66" height="71.5591" filterUnits="userSpaceOnUse" color-interpolation-filters="sRGB">
<feFlood flood-opacity="0" result="BackgroundImageFix"/>
<feColorMatrix in="SourceAlpha" type="matrix" values="0 0 0 0 0 0 0 0 0 0 0 0 0 0 0 0 0 0 127 0" result="hardAlpha"/>
<feOffset dy="4"/>
<feGaussianBlur stdDeviation="2"/>
<feComposite in2="hardAlpha" operator="out"/>
<feColorMatrix type="matrix" values="0 0 0 0 0 0 0 0 0 0 0 0 0 0 0 0 0 0 0.25 0"/>
<feBlend mode="normal" in2="BackgroundImageFix" result="effect1_dropShadow_2436_2191"/>
<feBlend mode="normal" in="SourceGraphic" in2="effect1_dropShadow_2436_2191" result="shape"/>
</filter>
</defs>
</svg>
