<svg width="70" height="71" viewBox="0 0 70 71" fill="none" xmlns="http://www.w3.org/2000/svg">
<g clip-path="url(#clip0_0_7888)">
<g clip-path="url(#clip1_0_7888)">
<path d="M35.0047 52.4793L32.6451 50.1029C23.9457 42.3608 18.1937 37.1378 18.1937 30.7224C18.1641 28.2637 19.1277 25.897 20.8664 24.1583C22.6051 22.4196 24.9718 21.4559 27.4305 21.4855C30.3434 21.5188 33.0994 22.811 34.9879 25.0291C36.8764 22.811 39.6324 21.5188 42.5453 21.4855C45.004 21.4559 47.3707 22.4196 49.1094 24.1583C50.8481 25.897 51.8118 28.2637 51.7822 30.7224C51.7822 37.1378 46.0721 42.3608 37.3307 50.1197L35.0047 52.4793Z" stroke="#004CFF" stroke-width="3" stroke-linecap="round"/>
<path d="M34.863 0.165039V8.56217" stroke="#004CFF" stroke-width="3" stroke-linecap="round"/>
<path d="M17.3607 4.98486L21.5593 12.2568" stroke="#004CFF" stroke-width="3" stroke-linecap="round"/>
<path d="M4.66882 17.7744L11.9407 21.973" stroke="#004CFF" stroke-width="3" stroke-linecap="round"/>
<path d="M0 35.3105H8.39713" stroke="#004CFF" stroke-width="3" stroke-linecap="round"/>
<path d="M4.81995 52.8045L12.0919 48.606" stroke="#004CFF" stroke-width="3" stroke-linecap="round"/>
<path d="M17.6095 65.496L21.8081 58.2241" stroke="#004CFF" stroke-width="3" stroke-linecap="round"/>
<path d="M35.1453 70.1652V61.7681" stroke="#004CFF" stroke-width="3" stroke-linecap="round"/>
<path d="M52.6394 65.3535L48.4408 58.0815" stroke="#004CFF" stroke-width="3" stroke-linecap="round"/>
<path d="M65.3312 52.5555L58.0593 48.3569" stroke="#004CFF" stroke-width="3" stroke-linecap="round"/>
<path d="M70 35.0283H61.6029" stroke="#004CFF" stroke-width="3" stroke-linecap="round"/>
<path d="M65.1884 17.5259L57.9165 21.7244" stroke="#004CFF" stroke-width="3" stroke-linecap="round"/>
<path d="M52.3905 4.83398L48.1919 12.1059" stroke="#004CFF" stroke-width="3" stroke-linecap="round"/>
</g>
</g>
<defs>
<clipPath id="clip0_0_7888">
<rect width="70" height="70" fill="white" transform="translate(0 0.165039)"/>
</clipPath>
<clipPath id="clip1_0_7888">
<rect width="70" height="70" fill="white" transform="translate(0 0.165039)"/>
</clipPath>
</defs>
</svg>
