<svg width="57" height="35" viewBox="0 0 57 35" fill="none" xmlns="http://www.w3.org/2000/svg">
<g clip-path="url(#clip0_9_5987)">
<rect x="20.5797" y="3.89307" width="15.1614" height="27.3167" fill="#FF5F00"/>
<path d="M21.4947 17.6168C21.4947 12.2581 23.978 7.29135 28.1604 3.89313C20.5798 -1.98846 9.73162 -0.681425 3.71917 6.7685C-2.16243 14.3492 -0.855359 25.1975 6.59459 31.2098C12.8683 36.1765 21.756 36.1765 28.0297 31.2098C23.978 27.9423 21.4947 22.9756 21.4947 17.6168Z" fill="#EB001B"/>
<path fill-rule="evenodd" clip-rule="evenodd" d="M56.2609 17.6167C56.2609 27.1579 48.5496 35 38.8776 35C34.9566 35 31.1662 33.693 28.16 31.3404C35.7407 25.4588 37.0478 14.4798 31.0355 7.02983C30.1205 5.98423 29.2056 4.93858 28.16 4.15434C35.7407 -1.72722 46.5889 -0.420217 52.4705 7.02983C54.9539 9.90525 56.2609 13.6956 56.2609 17.6167ZM54.5619 28.3342V27.8114H54.8232V27.6808H54.3004V27.8114H54.5619V28.3342ZM55.7381 28.3342V27.6808H55.6074L55.346 28.2035L55.0846 27.6808H54.9539V28.3342H55.0846V27.8114L55.346 28.2035H55.4766L55.6073 27.8114V28.3342H55.7381Z" fill="#F79E1B"/>
</g>
<defs>
<clipPath id="clip0_9_5987">
<rect width="56.2259" height="34.7908" fill="white" transform="translate(0.0350342 0.208984)"/>
</clipPath>
</defs>
</svg>
