<svg width="22" height="24" viewBox="0 0 22 24" fill="none" xmlns="http://www.w3.org/2000/svg">
<path d="M10.6729 1C12.7013 1 14.3457 2.64439 14.3457 4.67285C14.3457 6.70132 12.7013 8.3457 10.6729 8.3457C8.64439 8.34569 7 6.70131 7 4.67285C7.00001 2.6444 8.6444 1.00001 10.6729 1Z" stroke="#004CFF" stroke-width="2"/>
<g clip-path="url(#clip0_2_5271)">
<path d="M20.921 23.0638V18.6728C20.879 17.3932 20.331 16.1826 19.3974 15.3065C18.4637 14.4304 17.2207 13.9605 15.941 13.9998H5.98C4.7003 13.9605 3.45725 14.4304 2.52362 15.3065C1.58999 16.1826 1.04204 17.3932 1 18.6728V23.0638" stroke="#004CFF" stroke-width="2"/>
</g>
<defs>
<clipPath id="clip0_2_5271">
<rect width="21.921" height="10.064" fill="white" transform="translate(0 13)"/>
</clipPath>
</defs>
</svg>
