<svg width="17" height="10" viewBox="0 0 17 10" fill="none" xmlns="http://www.w3.org/2000/svg">
<path d="M8.28396 2.85739L2.01696 9.12939C1.90738 9.23971 1.77705 9.32727 1.63349 9.38703C1.48992 9.44678 1.33596 9.47754 1.18046 9.47754C1.02496 9.47754 0.870992 9.44678 0.727428 9.38703C0.583865 9.32727 0.453541 9.23971 0.343958 9.12939C0.123255 8.90591 -0.000503464 8.60447 -0.000503436 8.29039C-0.000503409 7.9763 0.123255 7.67486 0.343958 7.45139L7.44396 0.345387C7.65934 0.130516 7.94928 0.00696775 8.25344 0.000448455C8.5576 -0.00607084 8.85257 0.104942 9.07696 0.310387L16.227 7.44539C16.438 7.66943 16.5536 7.96679 16.5493 8.27454C16.5449 8.5823 16.421 8.8763 16.2038 9.09432C15.9866 9.31235 15.693 9.43729 15.3853 9.44272C15.0775 9.44814 14.7798 9.33362 14.555 9.12339L8.28396 2.85739Z" fill="#004BFE"/>
</svg>
